<svg width="28" height="18" viewBox="0 0 28 18" fill="none" xmlns="http://www.w3.org/2000/svg">
    <path d="M1 3.4C1 2.07452 2.09131 1 3.4375 1H24.5625C25.9087 1 27 2.07452 27 3.4V14.6C27 15.9255 25.9087 17 24.5625 17H3.4375C2.09131 17 1 15.9255 1 14.6V3.4Z" fill="#888686"/>
    <path d="M17.25 9C17.25 10.7673 15.7949 12.2 14 12.2C12.2051 12.2 10.75 10.7673 10.75 9C10.75 7.23269 12.2051 5.8 14 5.8C15.7949 5.8 17.25 7.23269 17.25 9Z" fill="#888686"/>
    <path d="M5.90651 8.96836L5.87469 8.99969M22.1247 8.96828L22.0929 8.99961M3.4375 17H24.5625C25.9087 17 27 15.9255 27 14.6V3.4C27 2.07452 25.9087 1 24.5625 1H3.4375C2.09131 1 1 2.07452 1 3.4V14.6C1 15.9255 2.09131 17 3.4375 17ZM17.25 9C17.25 10.7673 15.7949 12.2 14 12.2C12.2051 12.2 10.75 10.7673 10.75 9C10.75 7.23269 12.2051 5.8 14 5.8C15.7949 5.8 17.25 7.23269 17.25 9Z" stroke="white" stroke-width="2" stroke-linecap="round" stroke-linejoin="round"/>
</svg>
