<svg width="20" height="18" viewBox="0 0 20 18" fill="none" xmlns="http://www.w3.org/2000/svg">
    <path d="M1.69995 14.6099V3.38994H0.699951V14.6099H1.69995ZM3.39995 1.68994H16.5999V0.689941H3.39995V1.68994ZM18.2999 3.38994V14.6099H19.2999V3.38994H18.2999ZM18.2999 14.6099C18.2999 15.5488 17.5388 16.3099 16.5999 16.3099V17.3099C18.0911 17.3099 19.2999 16.1011 19.2999 14.6099H18.2999ZM16.5999 1.68994C17.5388 1.68994 18.2999 2.45106 18.2999 3.38994H19.2999C19.2999 1.89877 18.0911 0.689941 16.5999 0.689941V1.68994ZM1.69995 3.38994C1.69995 2.45106 2.46107 1.68994 3.39995 1.68994V0.689941C1.90878 0.689941 0.699951 1.89877 0.699951 3.38994H1.69995ZM3.39995 16.3099C2.46107 16.3099 1.69995 15.5488 1.69995 14.6099H0.699951C0.699951 16.1011 1.90878 17.3099 3.39995 17.3099V16.3099ZM12.7999 9.00005C12.7999 10.5464 11.5463 11.8001 9.99995 11.8001V12.8001C12.0986 12.8001 13.7999 11.0987 13.7999 9.00005H12.7999ZM9.99995 11.8001C8.45355 11.8001 7.19995 10.5464 7.19995 9.00005H6.19995C6.19995 11.0987 7.90127 12.8001 9.99995 12.8001V11.8001ZM7.19995 9.00005C7.19995 7.45365 8.45355 6.20005 9.99995 6.20005V5.20005C7.90127 5.20005 6.19995 6.90137 6.19995 9.00005H7.19995ZM9.99995 6.20005C11.5463 6.20005 12.7999 7.45365 12.7999 9.00005H13.7999C13.7999 6.90137 12.0986 5.20005 9.99995 5.20005V6.20005ZM16.5999 16.3099H3.39995V17.3099H16.5999V16.3099Z" fill="white"/>
</svg>
