<svg width="25" height="22" viewBox="0 0 25 22" fill="none" xmlns="http://www.w3.org/2000/svg">
    <path d="M3.875 21H21.125C22.7128 21 24 19.7734 24 18.2603V7.0274C24 5.51429 22.7128 4.28767 21.125 4.28767H18.25L16.2375 1H8.7625L6.75 4.28767H3.875C2.28718 4.28767 1 5.51429 1 7.0274V18.2603C1 19.7734 2.28718 21 3.875 21Z" fill="#D9D9D9"/>
    <path d="M16.8125 11.9589C16.8125 14.2286 14.8817 16.0685 12.5 16.0685C10.1183 16.0685 8.1875 14.2286 8.1875 11.9589C8.1875 9.68924 10.1183 7.84932 12.5 7.84932C14.8817 7.84932 16.8125 9.68924 16.8125 11.9589Z" fill="#D9D9D9"/>
    <path d="M6.75 4.28767V5.28767C7.0981 5.28767 7.42115 5.10665 7.60289 4.80976L6.75 4.28767ZM8.7625 1V0C8.4144 0 8.09135 0.181021 7.90961 0.477914L8.7625 1ZM16.2375 1L17.0904 0.477914C16.9087 0.181021 16.5856 0 16.2375 0V1ZM18.25 4.28767L17.3971 4.80976C17.5788 5.10665 17.9019 5.28767 18.25 5.28767V4.28767ZM2 18.2603V7.0274H0V18.2603H2ZM3.875 5.28767H6.75V3.28767H3.875V5.28767ZM7.60289 4.80976L9.61539 1.52209L7.90961 0.477914L5.89711 3.76559L7.60289 4.80976ZM8.7625 2H16.2375V0H8.7625V2ZM15.3846 1.52209L17.3971 4.80976L19.1029 3.76559L17.0904 0.477914L15.3846 1.52209ZM18.25 5.28767H21.125V3.28767H18.25V5.28767ZM23 7.0274V18.2603H25V7.0274H23ZM23 18.2603C23 19.1762 22.2065 20 21.125 20V22C23.2191 22 25 20.3705 25 18.2603H23ZM21.125 5.28767C22.2065 5.28767 23 6.11144 23 7.0274H25C25 4.91713 23.2191 3.28767 21.125 3.28767V5.28767ZM2 7.0274C2 6.11144 2.7935 5.28767 3.875 5.28767V3.28767C1.78086 3.28767 0 4.91713 0 7.0274H2ZM3.875 20C2.7935 20 2 19.1762 2 18.2603H0C0 20.3705 1.78086 22 3.875 22V20ZM15.8125 11.9589C15.8125 13.6314 14.3754 15.0685 12.5 15.0685V17.0685C15.388 17.0685 17.8125 14.8257 17.8125 11.9589H15.8125ZM12.5 15.0685C10.6246 15.0685 9.1875 13.6314 9.1875 11.9589H7.1875C7.1875 14.8257 9.61195 17.0685 12.5 17.0685V15.0685ZM9.1875 11.9589C9.1875 10.2864 10.6246 8.84932 12.5 8.84932V6.84932C9.61195 6.84932 7.1875 9.09209 7.1875 11.9589H9.1875ZM12.5 8.84932C14.3754 8.84932 15.8125 10.2864 15.8125 11.9589H17.8125C17.8125 9.09209 15.388 6.84932 12.5 6.84932V8.84932ZM21.125 20H3.875V22H21.125V20Z" fill="#888686"/>
</svg>
