<svg width="372" height="372" viewBox="0 0 372 372" fill="none" xmlns="http://www.w3.org/2000/svg">
<path d="M141.57 184.78C141.57 185.46 141.41 185.97 141.09 186.31C140.77 186.63 140.18 186.79 139.32 186.79H130.65C129.77 186.79 129.17 186.64 128.85 186.34C128.53 186.04 128.37 185.49 128.37 184.69V172.45C128.37 172.35 128.41 172.27 128.49 172.21C128.57 172.13 128.66 172.09 128.76 172.09H131.37C131.47 172.09 131.56 172.13 131.64 172.21C131.74 172.27 131.79 172.35 131.79 172.45V177.13H138.15V172.42C138.15 172.32 138.19 172.23 138.27 172.15C138.35 172.07 138.44 172.03 138.54 172.03H141.18C141.28 172.03 141.37 172.07 141.45 172.15C141.53 172.23 141.57 172.32 141.57 172.42V175.3H146.67V171.13C146.67 170.87 146.8 170.74 147.06 170.74H149.73C149.99 170.74 150.12 170.87 150.12 171.13V190.78C150.12 191.04 149.99 191.17 149.73 191.17H147.06C146.8 191.17 146.67 191.04 146.67 190.78V184.06H141.57V184.78ZM150.99 198.34C150.99 198.46 150.94 198.55 150.84 198.61C150.76 198.67 150.67 198.7 150.57 198.7H134.97C134.07 198.7 133.46 198.54 133.14 198.22C132.82 197.9 132.66 197.35 132.66 196.57V190.39C132.66 190.29 132.71 190.19 132.81 190.09C132.91 189.99 133.01 189.94 133.11 189.94H135.66C135.8 189.94 135.91 189.99 135.99 190.09C136.09 190.19 136.14 190.29 136.14 190.39V195.34C136.14 195.54 136.18 195.67 136.26 195.73C136.34 195.79 136.48 195.82 136.68 195.82H150.57C150.67 195.82 150.76 195.86 150.84 195.94C150.94 196.02 150.99 196.11 150.99 196.21V198.34ZM138.15 179.92H131.79V183.37C131.79 183.71 131.97 183.88 132.33 183.88H137.61C137.97 183.88 138.15 183.71 138.15 183.37V179.92ZM146.67 181.36V178H141.57V181.36H146.67ZM169.753 174.01C169.753 174.09 169.743 174.21 169.723 174.37C169.703 174.51 169.673 174.66 169.633 174.82C169.613 174.98 169.583 175.13 169.543 175.27C169.523 175.39 169.503 175.48 169.483 175.54C169.463 175.56 169.453 175.59 169.453 175.63H174.883V171.13C174.883 170.87 175.013 170.74 175.273 170.74H177.943C178.203 170.74 178.333 170.87 178.333 171.13V187.03C178.333 187.33 178.203 187.48 177.943 187.48H175.273C175.013 187.48 174.883 187.34 174.883 187.06V184.18H168.433C168.333 184.18 168.233 184.14 168.133 184.06C168.053 183.98 168.013 183.89 168.013 183.79V181.81C168.013 181.71 168.053 181.63 168.133 181.57C168.233 181.49 168.333 181.45 168.433 181.45H174.883V178.39H168.373C167.393 180.45 166.013 182.27 164.233 183.85C162.473 185.43 160.313 186.76 157.753 187.84C157.533 187.94 157.343 187.98 157.183 187.96C157.023 187.92 156.893 187.8 156.793 187.6L156.013 186.01C155.933 185.83 155.903 185.66 155.923 185.5C155.963 185.34 156.083 185.21 156.283 185.11C157.503 184.59 158.623 183.99 159.643 183.31C160.683 182.63 161.603 181.89 162.403 181.09C163.223 180.29 163.913 179.46 164.473 178.6C165.033 177.72 165.453 176.83 165.733 175.93C165.833 175.61 165.863 175.39 165.823 175.27C165.783 175.15 165.613 175.09 165.313 175.09H157.273C157.133 175.09 157.023 175.04 156.943 174.94C156.883 174.84 156.853 174.73 156.853 174.61V172.63C156.853 172.35 157.003 172.21 157.303 172.21H167.353C168.233 172.21 168.853 172.35 169.213 172.63C169.573 172.91 169.753 173.37 169.753 174.01ZM178.393 193.54C178.393 194.38 178.163 195.15 177.703 195.85C177.263 196.55 176.643 197.15 175.843 197.65C175.063 198.15 174.123 198.54 173.023 198.82C171.923 199.1 170.733 199.24 169.453 199.24C168.073 199.24 166.833 199.1 165.733 198.82C164.653 198.56 163.723 198.18 162.943 197.68C162.183 197.18 161.593 196.58 161.173 195.88C160.773 195.18 160.573 194.4 160.573 193.54C160.573 192.7 160.773 191.93 161.173 191.23C161.593 190.53 162.183 189.94 162.943 189.46C163.723 188.96 164.653 188.57 165.733 188.29C166.833 188.01 168.073 187.87 169.453 187.87C170.733 187.87 171.923 188.01 173.023 188.29C174.123 188.55 175.063 188.93 175.843 189.43C176.643 189.93 177.263 190.53 177.703 191.23C178.163 191.91 178.393 192.68 178.393 193.54ZM174.853 193.63C174.853 193.13 174.703 192.7 174.403 192.34C174.123 191.96 173.733 191.64 173.233 191.38C172.753 191.12 172.183 190.93 171.523 190.81C170.863 190.67 170.173 190.6 169.453 190.6C167.833 190.6 166.533 190.86 165.553 191.38C164.593 191.88 164.113 192.63 164.113 193.63C164.113 194.57 164.603 195.29 165.583 195.79C166.583 196.27 167.873 196.51 169.453 196.51C170.173 196.51 170.863 196.45 171.523 196.33C172.183 196.21 172.753 196.03 173.233 195.79C173.733 195.55 174.123 195.25 174.403 194.89C174.703 194.53 174.853 194.11 174.853 193.63ZM200.044 171.91C201.024 171.91 201.934 172.05 202.774 172.33C203.634 172.61 204.374 173 204.994 173.5C205.634 174 206.124 174.59 206.464 175.27C206.824 175.95 207.004 176.69 207.004 177.49C207.004 178.19 206.874 178.85 206.614 179.47C206.354 180.09 205.994 180.65 205.534 181.15C205.074 181.63 204.524 182.04 203.884 182.38C203.244 182.72 202.544 182.96 201.784 183.1V185.68C204.224 185.56 206.484 185.38 208.564 185.14C208.664 185.12 208.764 185.13 208.864 185.17C208.984 185.21 209.054 185.31 209.074 185.47L209.224 187.3C209.244 187.44 209.214 187.56 209.134 187.66C209.054 187.74 208.964 187.79 208.864 187.81C207.484 187.97 206.034 188.11 204.514 188.23C202.994 188.33 201.474 188.41 199.954 188.47C198.454 188.53 196.984 188.57 195.544 188.59C194.124 188.61 192.804 188.6 191.584 188.56C191.464 188.56 191.364 188.51 191.284 188.41C191.204 188.31 191.164 188.2 191.164 188.08V186.16C191.164 185.88 191.304 185.74 191.584 185.74C192.684 185.78 193.804 185.81 194.944 185.83C196.084 185.83 197.254 185.81 198.454 185.77V183.13C197.674 182.99 196.954 182.76 196.294 182.44C195.654 182.1 195.094 181.69 194.614 181.21C194.134 180.71 193.764 180.15 193.504 179.53C193.244 178.89 193.114 178.21 193.114 177.49C193.114 176.69 193.284 175.95 193.624 175.27C193.984 174.59 194.474 174 195.094 173.5C195.714 173 196.444 172.61 197.284 172.33C198.124 172.05 199.044 171.91 200.044 171.91ZM218.194 183.7C218.194 183.82 218.144 183.92 218.044 184C217.964 184.08 217.874 184.12 217.774 184.12H213.844V190.99C213.844 191.25 213.714 191.38 213.454 191.38H210.784C210.524 191.38 210.394 191.25 210.394 190.99V171.13C210.394 170.87 210.524 170.74 210.784 170.74H213.454C213.714 170.74 213.844 170.87 213.844 171.13V181.24H217.774C217.874 181.24 217.964 181.28 218.044 181.36C218.144 181.42 218.194 181.5 218.194 181.6V183.7ZM214.954 198.25C214.954 198.37 214.904 198.46 214.804 198.52C214.724 198.58 214.624 198.61 214.504 198.61H198.244C197.344 198.61 196.734 198.45 196.414 198.13C196.094 197.81 195.934 197.26 195.934 196.48V191.05C195.934 190.95 195.974 190.86 196.054 190.78C196.154 190.68 196.264 190.63 196.384 190.63H198.934C199.054 190.63 199.164 190.68 199.264 190.78C199.364 190.86 199.414 190.95 199.414 191.05V195.25C199.414 195.45 199.454 195.58 199.534 195.64C199.614 195.7 199.754 195.73 199.954 195.73H214.504C214.604 195.73 214.704 195.77 214.804 195.85C214.904 195.91 214.954 195.99 214.954 196.09V198.25ZM200.044 174.52C199.564 174.52 199.104 174.6 198.664 174.76C198.244 174.9 197.864 175.1 197.524 175.36C197.184 175.62 196.914 175.94 196.714 176.32C196.514 176.7 196.414 177.11 196.414 177.55C196.414 178.01 196.514 178.43 196.714 178.81C196.914 179.19 197.184 179.52 197.524 179.8C197.864 180.06 198.244 180.26 198.664 180.4C199.104 180.54 199.564 180.61 200.044 180.61C200.524 180.61 200.984 180.54 201.424 180.4C201.864 180.26 202.254 180.06 202.594 179.8C202.934 179.52 203.204 179.19 203.404 178.81C203.604 178.43 203.704 178.01 203.704 177.55C203.704 177.11 203.604 176.7 203.404 176.32C203.204 175.94 202.934 175.62 202.594 175.36C202.254 175.1 201.864 174.9 201.424 174.76C200.984 174.6 200.524 174.52 200.044 174.52ZM225.077 187C224.637 187 224.277 186.97 223.997 186.91C223.717 186.85 223.497 186.74 223.337 186.58C223.177 186.42 223.067 186.22 223.007 185.98C222.947 185.72 222.917 185.39 222.917 184.99V180.19C222.917 179.79 222.947 179.47 223.007 179.23C223.067 178.97 223.177 178.77 223.337 178.63C223.497 178.47 223.717 178.37 223.997 178.33C224.277 178.27 224.637 178.24 225.077 178.24H238.217C238.417 178.24 238.537 178.22 238.577 178.18C238.637 178.12 238.667 177.98 238.667 177.76V175.45C238.667 175.23 238.637 175.11 238.577 175.09C238.537 175.05 238.417 175.03 238.217 175.03H223.427C223.327 175.03 223.237 174.99 223.157 174.91C223.077 174.81 223.037 174.71 223.037 174.61V172.6C223.037 172.5 223.077 172.41 223.157 172.33C223.237 172.25 223.327 172.21 223.427 172.21H239.867C240.707 172.21 241.277 172.35 241.577 172.63C241.877 172.89 242.027 173.41 242.027 174.19V179.02C242.027 179.8 241.877 180.33 241.577 180.61C241.277 180.87 240.707 181 239.867 181H226.697C226.497 181 226.377 181.02 226.337 181.06C226.297 181.1 226.277 181.22 226.277 181.42V183.76C226.277 183.98 226.297 184.12 226.337 184.18C226.397 184.22 226.527 184.24 226.727 184.24H242.267C242.367 184.24 242.457 184.28 242.537 184.36C242.637 184.42 242.687 184.5 242.687 184.6V186.61C242.687 186.71 242.637 186.8 242.537 186.88C242.437 186.96 242.347 187 242.267 187H238.367V191.53H245.537C245.637 191.53 245.737 191.59 245.837 191.71C245.937 191.81 245.987 191.91 245.987 192.01V193.9C245.987 194 245.937 194.1 245.837 194.2C245.737 194.3 245.637 194.35 245.537 194.35H219.407C219.287 194.35 219.187 194.3 219.107 194.2C219.027 194.1 218.987 194 218.987 193.9V192.01C218.987 191.89 219.027 191.78 219.107 191.68C219.187 191.58 219.287 191.53 219.407 191.53H226.577V187H225.077ZM234.977 191.53V187H229.967V191.53H234.977Z" fill="url(#paint0_linear_4046_89)"/>
<path d="M212.749 111.911L235.481 49.7271M136.027 321.781L158.759 259.598M259.597 212.749L321.781 235.481M49.727 136.027L111.911 158.76M257.061 152.632L317.106 124.735M54.3957 246.776L114.441 218.88M218.887 257.057L246.783 317.101M124.722 54.4006L152.618 114.445" stroke="url(#paint1_linear_4046_89)" stroke-opacity="0.9" stroke-width="2" stroke-linecap="round" stroke-linejoin="round"/>
<defs>
<linearGradient id="paint0_linear_4046_89" x1="125" y1="186" x2="247" y2="186" gradientUnits="userSpaceOnUse">
<stop stop-color="#DCFF00"/>
<stop offset="1" stop-color="#00A9FF"/>
</linearGradient>
<linearGradient id="paint1_linear_4046_89" x1="235.481" y1="49.7271" x2="136.027" y2="321.781" gradientUnits="userSpaceOnUse">
<stop stop-color="#DCFF00"/>
<stop offset="1" stop-color="#00A9FF"/>
</linearGradient>
</defs>
</svg>
