<svg width="24" height="24" viewBox="0 0 24 24" fill="none" xmlns="http://www.w3.org/2000/svg">
    <path d="M1 8.84184C1 8.39036 1.2298 7.96679 1.6167 7.70515L11.15 1.2581C11.6589 0.913967 12.3411 0.913967 12.85 1.2581L22.3833 7.70515C22.7702 7.96679 23 8.39036 23 8.84184V20.9078C23 22.0633 22.015 23 20.8 23H3.2C1.98497 23 1 22.0633 1 20.9078V8.84184Z" fill="#8D8989"/>
    <path d="M14.75 13.375C14.75 14.8938 13.5188 16.125 12 16.125C10.4812 16.125 9.25 14.8938 9.25 13.375C9.25 11.8562 10.4812 10.625 12 10.625C13.5188 10.625 14.75 11.8562 14.75 13.375Z" fill="#8D8989"/>
    <path d="M1 8.84184C1 8.39036 1.2298 7.96679 1.6167 7.70515L11.15 1.2581C11.6589 0.913967 12.3411 0.913967 12.85 1.2581L22.3833 7.70515C22.7702 7.96679 23 8.39036 23 8.84184V20.9078C23 22.0633 22.015 23 20.8 23H3.2C1.98497 23 1 22.0633 1 20.9078V8.84184Z" stroke="white" stroke-width="2"/>
    <path d="M14.75 13.375C14.75 14.8938 13.5188 16.125 12 16.125C10.4812 16.125 9.25 14.8938 9.25 13.375C9.25 11.8562 10.4812 10.625 12 10.625C13.5188 10.625 14.75 11.8562 14.75 13.375Z" stroke="white" stroke-width="2"/>
</svg>
