<svg width="29" height="29" viewBox="0 0 29 29" fill="none" xmlns="http://www.w3.org/2000/svg">
    <path d="M28 14.5C28 21.9558 21.9558 28 14.5 28C7.04416 28 1 21.9558 1 14.5C1 7.04416 7.04416 1 14.5 1C21.9558 1 28 7.04416 28 14.5Z" fill="#00A9FF"/>
    <path d="M19.5625 14.4992H14.5M14.5 14.4992H9.4375M14.5 14.4992V19.5617M14.5 14.4992L14.5 9.43668M28 14.5C28 21.9558 21.9558 28 14.5 28C7.04416 28 1 21.9558 1 14.5C1 7.04416 7.04416 1 14.5 1C21.9558 1 28 7.04416 28 14.5Z" stroke="white" stroke-width="2" stroke-linecap="round"/>
</svg>
