<svg width="22" height="22" viewBox="0 0 22 22" fill="none" xmlns="http://www.w3.org/2000/svg">
    <path d="M3.84995 18.1502C4.16561 17.7967 6.28631 16.1311 7.34039 15.3101C7.7243 15.011 8.1952 14.8502 8.68183 14.8502C9.85852 14.8502 12.126 14.8502 13.3083 14.8502C13.8007 14.8502 14.2763 15.0179 14.6726 15.3099C16.0337 16.3125 17.3096 17.0596 18.6999 18.1502M5.49995 19.7999H16.4999C18.3225 19.7999 19.7999 18.3225 19.7999 16.4999V5.49995C19.7999 3.67741 18.3225 2.19995 16.4999 2.19995H5.49995C3.67741 2.19995 2.19995 3.67741 2.19995 5.49995V16.4999C2.19995 18.3225 3.67741 19.7999 5.49995 19.7999ZM14.152 8.49932C14.152 6.82044 12.7347 5.44869 11 5.44869C9.26527 5.44869 7.84795 6.82044 7.84795 8.49932C7.84795 10.1782 9.26527 11.55 11 11.55C12.7346 11.55 14.152 10.1782 14.152 8.49932Z" fill="#000" stroke="white"/>
</svg>
