<svg width="24" height="24" viewBox="0 0 24 24" fill="none" xmlns="http://www.w3.org/2000/svg">
    <path d="M10.7293 1.88473C11.1658 0.705092 12.8342 0.705091 13.2707 1.88472L15.4433 7.75613C15.5806 8.12701 15.873 8.41942 16.2439 8.55665L22.1153 10.7293C23.2949 11.1658 23.2949 12.8342 22.1153 13.2707L16.2439 15.4433C15.873 15.5806 15.5806 15.873 15.4433 16.2439L13.2707 22.1153C12.8342 23.2949 11.1658 23.2949 10.7293 22.1153L8.55665 16.2439C8.41942 15.873 8.12701 15.5806 7.75613 15.4433L1.88473 13.2707C0.705092 12.8342 0.705091 11.1658 1.88472 10.7293L7.75613 8.55665C8.12701 8.41942 8.41942 8.12701 8.55665 7.75613L10.7293 1.88473Z" fill="#D9D9D9" stroke="white" stroke-width="2" stroke-linejoin="round"/>
</svg>
