<svg width="18" height="18" viewBox="0 0 18 18" fill="none" xmlns="http://www.w3.org/2000/svg">
    <path d="M8.57567 4.80697C8.31049 4.48876 7.83757 4.44577 7.51936 4.71094C7.20116 4.97612 7.15816 5.44904 7.42334 5.76725L8.57567 4.80697ZM10.9458 8.82267L11.522 9.30281C11.7537 9.02467 11.7537 8.62066 11.522 8.34253L10.9458 8.82267ZM7.42334 11.8781C7.15816 12.1963 7.20116 12.6692 7.51936 12.9344C7.83757 13.1996 8.31049 13.1566 8.57567 12.8384L7.42334 11.8781ZM7.42334 5.76725L10.3696 9.30281L11.522 8.34253L8.57567 4.80697L7.42334 5.76725ZM10.3696 8.34253L7.42334 11.8781L8.57567 12.8384L11.522 9.30281L10.3696 8.34253ZM9 1.75C13.0041 1.75 16.25 4.99593 16.25 9H17.75C17.75 4.16751 13.8325 0.25 9 0.25V1.75ZM16.25 9C16.25 13.0041 13.0041 16.25 9 16.25V17.75C13.8325 17.75 17.75 13.8325 17.75 9H16.25ZM9 16.25C4.99594 16.25 1.75 13.0041 1.75 9H0.25C0.25 13.8325 4.16751 17.75 9 17.75V16.25ZM1.75 9C1.75 4.99594 4.99593 1.75 9 1.75V0.25C4.16751 0.25 0.25 4.16751 0.25 9H1.75Z" fill="#0C0C0C"/>
</svg>
