<!-- <svg width="372" height="372" viewBox="0 0 372 372" fill="none" xmlns="http://www.w3.org/2000/svg">
<g clip-path="url(#clip0_4011_91)">
<path d="M141.21 175.24C141.07 177.06 140.7 178.82 140.1 180.52C139.5 182.2 138.67 183.79 137.61 185.29C136.57 186.79 135.31 188.19 133.83 189.49C132.35 190.79 130.68 191.95 128.82 192.97C128.66 193.05 128.49 193.09 128.31 193.09C128.15 193.07 128.02 192.98 127.92 192.82L126.72 191.14C126.62 190.98 126.59 190.82 126.63 190.66C126.67 190.5 126.76 190.37 126.9 190.27C129.88 188.69 132.29 186.74 134.13 184.42C135.97 182.1 137.09 179.58 137.49 176.86C137.55 176.46 137.52 176.2 137.4 176.08C137.3 175.94 137.07 175.87 136.71 175.87H128.25C127.99 175.87 127.86 175.73 127.86 175.45V173.35C127.86 173.11 127.99 172.99 128.25 172.99H139.08C139.98 172.99 140.57 173.18 140.85 173.56C141.15 173.92 141.27 174.48 141.21 175.24ZM153.36 184.15C153.36 184.27 153.31 184.37 153.21 184.45C153.13 184.53 153.03 184.57 152.91 184.57H148.86V198.82C148.86 199.08 148.73 199.21 148.47 199.21H145.8C145.54 199.21 145.41 199.08 145.41 198.82V171.13C145.41 170.87 145.54 170.74 145.8 170.74H148.47C148.73 170.74 148.86 170.87 148.86 171.13V181.69H152.91C153.03 181.69 153.13 181.73 153.21 181.81C153.31 181.87 153.36 181.95 153.36 182.05V184.15ZM178.033 185.47C178.033 185.75 177.903 185.89 177.643 185.89H174.973C174.713 185.89 174.583 185.75 174.583 185.47V171.13C174.583 170.87 174.713 170.74 174.973 170.74H177.643C177.903 170.74 178.033 170.87 178.033 171.13V185.47ZM174.583 193.33H163.993V195.43C163.993 195.77 164.173 195.94 164.533 195.94H174.043C174.403 195.94 174.583 195.77 174.583 195.43V193.33ZM178.033 196.75C178.033 197.43 177.873 197.93 177.553 198.25C177.233 198.59 176.643 198.76 175.783 198.76H162.823C161.943 198.76 161.343 198.61 161.023 198.31C160.703 198.01 160.543 197.46 160.543 196.66V187.78C160.543 187.68 160.583 187.6 160.663 187.54C160.743 187.46 160.833 187.42 160.933 187.42H163.573C163.673 187.42 163.763 187.46 163.843 187.54C163.943 187.6 163.993 187.68 163.993 187.78V190.54H174.583V187.66C174.583 187.56 174.623 187.47 174.703 187.39C174.783 187.31 174.873 187.27 174.973 187.27H177.643C177.743 187.27 177.833 187.31 177.913 187.39C177.993 187.47 178.033 187.56 178.033 187.66V196.75ZM170.323 178.33C170.323 179.21 170.143 180.06 169.783 180.88C169.443 181.68 168.953 182.39 168.313 183.01C167.693 183.63 166.933 184.13 166.033 184.51C165.153 184.87 164.173 185.05 163.093 185.05C162.013 185.05 161.023 184.87 160.123 184.51C159.243 184.13 158.483 183.63 157.843 183.01C157.223 182.39 156.743 181.68 156.403 180.88C156.063 180.06 155.893 179.21 155.893 178.33C155.893 177.43 156.063 176.57 156.403 175.75C156.743 174.93 157.223 174.21 157.843 173.59C158.483 172.97 159.243 172.48 160.123 172.12C161.023 171.74 162.013 171.55 163.093 171.55C164.173 171.55 165.153 171.74 166.033 172.12C166.933 172.48 167.693 172.97 168.313 173.59C168.953 174.21 169.443 174.93 169.783 175.75C170.143 176.57 170.323 177.43 170.323 178.33ZM167.023 178.33C167.023 177.81 166.923 177.31 166.723 176.83C166.543 176.35 166.273 175.93 165.913 175.57C165.573 175.21 165.163 174.92 164.683 174.7C164.203 174.48 163.673 174.37 163.093 174.37C162.513 174.37 161.983 174.48 161.503 174.7C161.023 174.92 160.613 175.21 160.273 175.57C159.933 175.93 159.663 176.35 159.463 176.83C159.283 177.31 159.193 177.81 159.193 178.33C159.193 178.85 159.283 179.35 159.463 179.83C159.663 180.29 159.933 180.7 160.273 181.06C160.613 181.42 161.023 181.71 161.503 181.93C161.983 182.13 162.513 182.23 163.093 182.23C163.673 182.23 164.203 182.13 164.683 181.93C165.163 181.71 165.573 181.42 165.913 181.06C166.273 180.7 166.543 180.29 166.723 179.83C166.923 179.35 167.023 178.85 167.023 178.33ZM200.044 171.91C201.024 171.91 201.934 172.05 202.774 172.33C203.634 172.61 204.374 173 204.994 173.5C205.634 174 206.124 174.59 206.464 175.27C206.824 175.95 207.004 176.69 207.004 177.49C207.004 178.19 206.874 178.85 206.614 179.47C206.354 180.09 205.994 180.65 205.534 181.15C205.074 181.63 204.524 182.04 203.884 182.38C203.244 182.72 202.544 182.96 201.784 183.1V185.68C204.224 185.56 206.484 185.38 208.564 185.14C208.664 185.12 208.764 185.13 208.864 185.17C208.984 185.21 209.054 185.31 209.074 185.47L209.224 187.3C209.244 187.44 209.214 187.56 209.134 187.66C209.054 187.74 208.964 187.79 208.864 187.81C207.484 187.97 206.034 188.11 204.514 188.23C202.994 188.33 201.474 188.41 199.954 188.47C198.454 188.53 196.984 188.57 195.544 188.59C194.124 188.61 192.804 188.6 191.584 188.56C191.464 188.56 191.364 188.51 191.284 188.41C191.204 188.31 191.164 188.2 191.164 188.08V186.16C191.164 185.88 191.304 185.74 191.584 185.74C192.684 185.78 193.804 185.81 194.944 185.83C196.084 185.83 197.254 185.81 198.454 185.77V183.13C197.674 182.99 196.954 182.76 196.294 182.44C195.654 182.1 195.094 181.69 194.614 181.21C194.134 180.71 193.764 180.15 193.504 179.53C193.244 178.89 193.114 178.21 193.114 177.49C193.114 176.69 193.284 175.95 193.624 175.27C193.984 174.59 194.474 174 195.094 173.5C195.714 173 196.444 172.61 197.284 172.33C198.124 172.05 199.044 171.91 200.044 171.91ZM218.194 183.7C218.194 183.82 218.144 183.92 218.044 184C217.964 184.08 217.874 184.12 217.774 184.12H213.844V190.99C213.844 191.25 213.714 191.38 213.454 191.38H210.784C210.524 191.38 210.394 191.25 210.394 190.99V171.13C210.394 170.87 210.524 170.74 210.784 170.74H213.454C213.714 170.74 213.844 170.87 213.844 171.13V181.24H217.774C217.874 181.24 217.964 181.28 218.044 181.36C218.144 181.42 218.194 181.5 218.194 181.6V183.7ZM214.954 198.25C214.954 198.37 214.904 198.46 214.804 198.52C214.724 198.58 214.624 198.61 214.504 198.61H198.244C197.344 198.61 196.734 198.45 196.414 198.13C196.094 197.81 195.934 197.26 195.934 196.48V191.05C195.934 190.95 195.974 190.86 196.054 190.78C196.154 190.68 196.264 190.63 196.384 190.63H198.934C199.054 190.63 199.164 190.68 199.264 190.78C199.364 190.86 199.414 190.95 199.414 191.05V195.25C199.414 195.45 199.454 195.58 199.534 195.64C199.614 195.7 199.754 195.73 199.954 195.73H214.504C214.604 195.73 214.704 195.77 214.804 195.85C214.904 195.91 214.954 195.99 214.954 196.09V198.25ZM200.044 174.52C199.564 174.52 199.104 174.6 198.664 174.76C198.244 174.9 197.864 175.1 197.524 175.36C197.184 175.62 196.914 175.94 196.714 176.32C196.514 176.7 196.414 177.11 196.414 177.55C196.414 178.01 196.514 178.43 196.714 178.81C196.914 179.19 197.184 179.52 197.524 179.8C197.864 180.06 198.244 180.26 198.664 180.4C199.104 180.54 199.564 180.61 200.044 180.61C200.524 180.61 200.984 180.54 201.424 180.4C201.864 180.26 202.254 180.06 202.594 179.8C202.934 179.52 203.204 179.19 203.404 178.81C203.604 178.43 203.704 178.01 203.704 177.55C203.704 177.11 203.604 176.7 203.404 176.32C203.204 175.94 202.934 175.62 202.594 175.36C202.254 175.1 201.864 174.9 201.424 174.76C200.984 174.6 200.524 174.52 200.044 174.52ZM225.077 187C224.637 187 224.277 186.97 223.997 186.91C223.717 186.85 223.497 186.74 223.337 186.58C223.177 186.42 223.067 186.22 223.007 185.98C222.947 185.72 222.917 185.39 222.917 184.99V180.19C222.917 179.79 222.947 179.47 223.007 179.23C223.067 178.97 223.177 178.77 223.337 178.63C223.497 178.47 223.717 178.37 223.997 178.33C224.277 178.27 224.637 178.24 225.077 178.24H238.217C238.417 178.24 238.537 178.22 238.577 178.18C238.637 178.12 238.667 177.98 238.667 177.76V175.45C238.667 175.23 238.637 175.11 238.577 175.09C238.537 175.05 238.417 175.03 238.217 175.03H223.427C223.327 175.03 223.237 174.99 223.157 174.91C223.077 174.81 223.037 174.71 223.037 174.61V172.6C223.037 172.5 223.077 172.41 223.157 172.33C223.237 172.25 223.327 172.21 223.427 172.21H239.867C240.707 172.21 241.277 172.35 241.577 172.63C241.877 172.89 242.027 173.41 242.027 174.19V179.02C242.027 179.8 241.877 180.33 241.577 180.61C241.277 180.87 240.707 181 239.867 181H226.697C226.497 181 226.377 181.02 226.337 181.06C226.297 181.1 226.277 181.22 226.277 181.42V183.76C226.277 183.98 226.297 184.12 226.337 184.18C226.397 184.22 226.527 184.24 226.727 184.24H242.267C242.367 184.24 242.457 184.28 242.537 184.36C242.637 184.42 242.687 184.5 242.687 184.6V186.61C242.687 186.71 242.637 186.8 242.537 186.88C242.437 186.96 242.347 187 242.267 187H238.367V191.53H245.537C245.637 191.53 245.737 191.59 245.837 191.71C245.937 191.81 245.987 191.91 245.987 192.01V193.9C245.987 194 245.937 194.1 245.837 194.2C245.737 194.3 245.637 194.35 245.537 194.35H219.407C219.287 194.35 219.187 194.3 219.107 194.2C219.027 194.1 218.987 194 218.987 193.9V192.01C218.987 191.89 219.027 191.78 219.107 191.68C219.187 191.58 219.287 191.53 219.407 191.53H226.577V187H225.077ZM234.977 191.53V187H229.967V191.53H234.977Z" fill="url(#paint0_linear_4011_91)"/>
<path d="M212.749 111.911L235.481 49.7271M136.027 321.781L158.759 259.598M259.597 212.749L321.781 235.481M49.727 136.027L111.911 158.76M257.061 152.632L317.106 124.735M54.3957 246.776L114.441 218.88M218.887 257.057L246.783 317.101M124.722 54.4006L152.618 114.445" stroke="url(#paint1_linear_4011_91)" stroke-opacity="0.9" stroke-width="2" stroke-linecap="round" stroke-linejoin="round"/>
</g>
<defs>
<linearGradient id="paint0_linear_4011_91" x1="125" y1="186" x2="247" y2="186" gradientUnits="userSpaceOnUse">
<stop stop-color="#DCFF00"/>
<stop offset="1" stop-color="#00A9FF"/>
</linearGradient>
<linearGradient id="paint1_linear_4011_91" x1="235.481" y1="49.7271" x2="136.027" y2="321.781" gradientUnits="userSpaceOnUse">
<stop stop-color="#DCFF00"/>
<stop offset="1" stop-color="#00A9FF"/>
</linearGradient>
<clipPath id="clip0_4011_91">
<rect width="371.509" height="371.509" fill="white"/>
</clipPath>
</defs>
</svg> -->

<svg width="372" height="372" viewBox="0 0 372 372" fill="none" xmlns="http://www.w3.org/2000/svg">
<g clip-path="url(#clip0_4011_91)">
<path d="M141.21 175.24C141.07 177.06 140.7 178.82 140.1 180.52C139.5 182.2 138.67 183.79 137.61 185.29C136.57 186.79 135.31 188.19 133.83 189.49C132.35 190.79 130.68 191.95 128.82 192.97C128.66 193.05 128.49 193.09 128.31 193.09C128.15 193.07 128.02 192.98 127.92 192.82L126.72 191.14C126.62 190.98 126.59 190.82 126.63 190.66C126.67 190.5 126.76 190.37 126.9 190.27C129.88 188.69 132.29 186.74 134.13 184.42C135.97 182.1 137.09 179.58 137.49 176.86C137.55 176.46 137.52 176.2 137.4 176.08C137.3 175.94 137.07 175.87 136.71 175.87H128.25C127.99 175.87 127.86 175.73 127.86 175.45V173.35C127.86 173.11 127.99 172.99 128.25 172.99H139.08C139.98 172.99 140.57 173.18 140.85 173.56C141.15 173.92 141.27 174.48 141.21 175.24ZM153.36 184.15C153.36 184.27 153.31 184.37 153.21 184.45C153.13 184.53 153.03 184.57 152.91 184.57H148.86V198.82C148.86 199.08 148.73 199.21 148.47 199.21H145.8C145.54 199.21 145.41 199.08 145.41 198.82V171.13C145.41 170.87 145.54 170.74 145.8 170.74H148.47C148.73 170.74 148.86 170.87 148.86 171.13V181.69H152.91C153.03 181.69 153.13 181.73 153.21 181.81C153.31 181.87 153.36 181.95 153.36 182.05V184.15ZM178.033 185.47C178.033 185.75 177.903 185.89 177.643 185.89H174.973C174.713 185.89 174.583 185.75 174.583 185.47V171.13C174.583 170.87 174.713 170.74 174.973 170.74H177.643C177.903 170.74 178.033 170.87 178.033 171.13V185.47ZM174.583 193.33H163.993V195.43C163.993 195.77 164.173 195.94 164.533 195.94H174.043C174.403 195.94 174.583 195.77 174.583 195.43V193.33ZM178.033 196.75C178.033 197.43 177.873 197.93 177.553 198.25C177.233 198.59 176.643 198.76 175.783 198.76H162.823C161.943 198.76 161.343 198.61 161.023 198.31C160.703 198.01 160.543 197.46 160.543 196.66V187.78C160.543 187.68 160.583 187.6 160.663 187.54C160.743 187.46 160.833 187.42 160.933 187.42H163.573C163.673 187.42 163.763 187.46 163.843 187.54C163.943 187.6 163.993 187.68 163.993 187.78V190.54H174.583V187.66C174.583 187.56 174.623 187.47 174.703 187.39C174.783 187.31 174.873 187.27 174.973 187.27H177.643C177.743 187.27 177.833 187.31 177.913 187.39C177.993 187.47 178.033 187.56 178.033 187.66V196.75ZM170.323 178.33C170.323 179.21 170.143 180.06 169.783 180.88C169.443 181.68 168.953 182.39 168.313 183.01C167.693 183.63 166.933 184.13 166.033 184.51C165.153 184.87 164.173 185.05 163.093 185.05C162.013 185.05 161.023 184.87 160.123 184.51C159.243 184.13 158.483 183.63 157.843 183.01C157.223 182.39 156.743 181.68 156.403 180.88C156.063 180.06 155.893 179.21 155.893 178.33C155.893 177.43 156.063 176.57 156.403 175.75C156.743 174.93 157.223 174.21 157.843 173.59C158.483 172.97 159.243 172.48 160.123 172.12C161.023 171.74 162.013 171.55 163.093 171.55C164.173 171.55 165.153 171.74 166.033 172.12C166.933 172.48 167.693 172.97 168.313 173.59C168.953 174.21 169.443 174.93 169.783 175.75C170.143 176.57 170.323 177.43 170.323 178.33ZM167.023 178.33C167.023 177.81 166.923 177.31 166.723 176.83C166.543 176.35 166.273 175.93 165.913 175.57C165.573 175.21 165.163 174.92 164.683 174.7C164.203 174.48 163.673 174.37 163.093 174.37C162.513 174.37 161.983 174.48 161.503 174.7C161.023 174.92 160.613 175.21 160.273 175.57C159.933 175.93 159.663 176.35 159.463 176.83C159.283 177.31 159.193 177.81 159.193 178.33C159.193 178.85 159.283 179.35 159.463 179.83C159.663 180.29 159.933 180.7 160.273 181.06C160.613 181.42 161.023 181.71 161.503 181.93C161.983 182.13 162.513 182.23 163.093 182.23C163.673 182.23 164.203 182.13 164.683 181.93C165.163 181.71 165.573 181.42 165.913 181.06C166.273 180.7 166.543 180.29 166.723 179.83C166.923 179.35 167.023 178.85 167.023 178.33ZM200.044 171.91C201.024 171.91 201.934 172.05 202.774 172.33C203.634 172.61 204.374 173 204.994 173.5C205.634 174 206.124 174.59 206.464 175.27C206.824 175.95 207.004 176.69 207.004 177.49C207.004 178.19 206.874 178.85 206.614 179.47C206.354 180.09 205.994 180.65 205.534 181.15C205.074 181.63 204.524 182.04 203.884 182.38C203.244 182.72 202.544 182.96 201.784 183.1V185.68C204.224 185.56 206.484 185.38 208.564 185.14C208.664 185.12 208.764 185.13 208.864 185.17C208.984 185.21 209.054 185.31 209.074 185.47L209.224 187.3C209.244 187.44 209.214 187.56 209.134 187.66C209.054 187.74 208.964 187.79 208.864 187.81C207.484 187.97 206.034 188.11 204.514 188.23C202.994 188.33 201.474 188.41 199.954 188.47C198.454 188.53 196.984 188.57 195.544 188.59C194.124 188.61 192.804 188.6 191.584 188.56C191.464 188.56 191.364 188.51 191.284 188.41C191.204 188.31 191.164 188.2 191.164 188.08V186.16C191.164 185.88 191.304 185.74 191.584 185.74C192.684 185.78 193.804 185.81 194.944 185.83C196.084 185.83 197.254 185.81 198.454 185.77V183.13C197.674 182.99 196.954 182.76 196.294 182.44C195.654 182.1 195.094 181.69 194.614 181.21C194.134 180.71 193.764 180.15 193.504 179.53C193.244 178.89 193.114 178.21 193.114 177.49C193.114 176.69 193.284 175.95 193.624 175.27C193.984 174.59 194.474 174 195.094 173.5C195.714 173 196.444 172.61 197.284 172.33C198.124 172.05 199.044 171.91 200.044 171.91ZM218.194 183.7C218.194 183.82 218.144 183.92 218.044 184C217.964 184.08 217.874 184.12 217.774 184.12H213.844V190.99C213.844 191.25 213.714 191.38 213.454 191.38H210.784C210.524 191.38 210.394 191.25 210.394 190.99V171.13C210.394 170.87 210.524 170.74 210.784 170.74H213.454C213.714 170.74 213.844 170.87 213.844 171.13V181.24H217.774C217.874 181.24 217.964 181.28 218.044 181.36C218.144 181.42 218.194 181.5 218.194 181.6V183.7ZM214.954 198.25C214.954 198.37 214.904 198.46 214.804 198.52C214.724 198.58 214.624 198.61 214.504 198.61H198.244C197.344 198.61 196.734 198.45 196.414 198.13C196.094 197.81 195.934 197.26 195.934 196.48V191.05C195.934 190.95 195.974 190.86 196.054 190.78C196.154 190.68 196.264 190.63 196.384 190.63H198.934C199.054 190.63 199.164 190.68 199.264 190.78C199.364 190.86 199.414 190.95 199.414 191.05V195.25C199.414 195.45 199.454 195.58 199.534 195.64C199.614 195.7 199.754 195.73 199.954 195.73H214.504C214.604 195.73 214.704 195.77 214.804 195.85C214.904 195.91 214.954 195.99 214.954 196.09V198.25ZM200.044 174.52C199.564 174.52 199.104 174.6 198.664 174.76C198.244 174.9 197.864 175.1 197.524 175.36C197.184 175.62 196.914 175.94 196.714 176.32C196.514 176.7 196.414 177.11 196.414 177.55C196.414 178.01 196.514 178.43 196.714 178.81C196.914 179.19 197.184 179.52 197.524 179.8C197.864 180.06 198.244 180.26 198.664 180.4C199.104 180.54 199.564 180.61 200.044 180.61C200.524 180.61 200.984 180.54 201.424 180.4C201.864 180.26 202.254 180.06 202.594 179.8C202.934 179.52 203.204 179.19 203.404 178.81C203.604 178.43 203.704 178.01 203.704 177.55C203.704 177.11 203.604 176.7 203.404 176.32C203.204 175.94 202.934 175.62 202.594 175.36C202.254 175.1 201.864 174.9 201.424 174.76C200.984 174.6 200.524 174.52 200.044 174.52ZM225.077 187C224.637 187 224.277 186.97 223.997 186.91C223.717 186.85 223.497 186.74 223.337 186.58C223.177 186.42 223.067 186.22 223.007 185.98C222.947 185.72 222.917 185.39 222.917 184.99V180.19C222.917 179.79 222.947 179.47 223.007 179.23C223.067 178.97 223.177 178.77 223.337 178.63C223.497 178.47 223.717 178.37 223.997 178.33C224.277 178.27 224.637 178.24 225.077 178.24H238.217C238.417 178.24 238.537 178.22 238.577 178.18C238.637 178.12 238.667 177.98 238.667 177.76V175.45C238.667 175.23 238.637 175.11 238.577 175.09C238.537 175.05 238.417 175.03 238.217 175.03H223.427C223.327 175.03 223.237 174.99 223.157 174.91C223.077 174.81 223.037 174.71 223.037 174.61V172.6C223.037 172.5 223.077 172.41 223.157 172.33C223.237 172.25 223.327 172.21 223.427 172.21H239.867C240.707 172.21 241.277 172.35 241.577 172.63C241.877 172.89 242.027 173.41 242.027 174.19V179.02C242.027 179.8 241.877 180.33 241.577 180.61C241.277 180.87 240.707 181 239.867 181H226.697C226.497 181 226.377 181.02 226.337 181.06C226.297 181.1 226.277 181.22 226.277 181.42V183.76C226.277 183.98 226.297 184.12 226.337 184.18C226.397 184.22 226.527 184.24 226.727 184.24H242.267C242.367 184.24 242.457 184.28 242.537 184.36C242.637 184.42 242.687 184.5 242.687 184.6V186.61C242.687 186.71 242.637 186.8 242.537 186.88C242.437 186.96 242.347 187 242.267 187H238.367V191.53H245.537C245.637 191.53 245.737 191.59 245.837 191.71C245.937 191.81 245.987 191.91 245.987 192.01V193.9C245.987 194 245.937 194.1 245.837 194.2C245.737 194.3 245.637 194.35 245.537 194.35H219.407C219.287 194.35 219.187 194.3 219.107 194.2C219.027 194.1 218.987 194 218.987 193.9V192.01C218.987 191.89 219.027 191.78 219.107 191.68C219.187 191.58 219.287 191.53 219.407 191.53H226.577V187H225.077ZM234.977 191.53V187H229.967V191.53H234.977Z" fill="url(#paint0_linear_4011_91)"/>
<path d="M212.749 111.911L235.481 49.7271M136.027 321.781L158.759 259.598M259.597 212.749L321.781 235.481M49.727 136.027L111.911 158.76M257.061 152.632L317.106 124.735M54.3957 246.776L114.441 218.88M218.887 257.057L246.783 317.101M124.722 54.4006L152.618 114.445" stroke="url(#paint1_linear_4011_91)" stroke-opacity="0.9" stroke-width="2" stroke-linecap="round" stroke-linejoin="round"/>
</g>
<defs>
<linearGradient id="paint0_linear_4011_91" x1="125" y1="186" x2="247" y2="186" gradientUnits="userSpaceOnUse">
<stop offset="0%" stop-color="#DCFF00">
<animate attributeName="stop-color" values="#DCFF00;#00A9FF;#DCFF00" dur="2s" repeatCount="indefinite"/>
</stop>
<stop offset="100%" stop-color="#00A9FF">
<animate attributeName="stop-color" values="#00A9FF;#DCFF00;#00A9FF" dur="2s" repeatCount="indefinite"/>
</stop>
</linearGradient>
<linearGradient id="paint1_linear_4011_91" x1="235.481" y1="49.7271" x2="136.027" y2="321.781" gradientUnits="userSpaceOnUse">
<stop offset="0%" stop-color="#DCFF00">
<animate attributeName="stop-color" values="#DCFF00;#00A9FF;#DCFF00" dur="2s" repeatCount="indefinite"/>
</stop>
<stop offset="100%" stop-color="#00A9FF">
<animate attributeName="stop-color" values="#00A9FF;#DCFF00;#00A9FF" dur="2s" repeatCount="indefinite"/>
</stop>
</linearGradient>
</defs>
<clipPath id="clip0_4011_91">
<rect width="371.509" height="371.509" fill="white"/>
</clipPath>
</svg>
